name rise45.9887peak57.8056fall74.9286.mot
datacolumns 19
datarows 15
range 8.06996900000000 8.09330900000000
endheader
time	ground_force1_vx	ground_force1_vy	ground_force1_vz	ground_force1_px	ground_force1_py	ground_force1_pz	ground_force2_vx	ground_force2_vy	ground_force2_vz	ground_force2_px	ground_force2_py	ground_force2_pz	ground_torque1_x	ground_torque1_y	ground_torque1_z	ground_torque2_x	ground_torque2_y	ground_torque2_z	
8.06996900000000	50.68706400000000	771.31933800000002	62.94086400000000	0.34592400000000	0.00000000000000	0.12081600000000	0.00000000000000	0.00000000000000	0.00000000000000	0.00000000000000	0.00000000000000	0.00000000000000	0.00000000000000	30.94258200000000	0.00000000000000	0.00000000000000	0.00000000000000	0.00000000000000	
8.07163400000000	50.12688300000000	774.12130100000002	62.96361300000000	0.34516800000000	0.00000000000000	0.12071200000000	0.00000000000000	0.00000000000000	0.00000000000000	0.00000000000000	0.00000000000000	0.00000000000000	0.00000000000000	30.97728400000000	0.00000000000000	0.00000000000000	0.00000000000000	0.00000000000000	
8.07330900000000	49.57550000000000	776.79279799999995	62.98130700000000	0.34444100000000	0.00000000000000	0.12060900000000	0.00000000000000	0.00000000000000	0.00000000000000	0.00000000000000	0.00000000000000	0.00000000000000	0.00000000000000	31.00833600000000	0.00000000000000	0.00000000000000	0.00000000000000	0.00000000000000	
8.07496800000000	49.03330300000000	779.33236699999998	62.99414800000000	0.34374300000000	0.00000000000000	0.12050500000000	0.00000000000000	0.00000000000000	0.00000000000000	0.00000000000000	0.00000000000000	0.00000000000000	0.00000000000000	31.03579100000000	0.00000000000000	0.00000000000000	0.00000000000000	0.00000000000000	
8.07664200000000	48.50060300000000	781.73870499999998	63.00229800000000	0.34307300000000	0.00000000000000	0.12040200000000	0.00000000000000	0.00000000000000	0.00000000000000	0.00000000000000	0.00000000000000	0.00000000000000	0.00000000000000	31.05967700000000	0.00000000000000	0.00000000000000	0.00000000000000	0.00000000000000	
8.07831000000000	47.97763700000000	784.01067899999998	63.00587500000000	0.34242900000000	0.00000000000000	0.12030000000000	0.00000000000000	0.00000000000000	0.00000000000000	0.00000000000000	0.00000000000000	0.00000000000000	0.00000000000000	31.08000600000000	0.00000000000000	0.00000000000000	0.00000000000000	0.00000000000000	
8.07997300000000	47.46457000000000	786.14733699999999	63.00495900000000	0.34181000000000	0.00000000000000	0.12019700000000	0.00000000000000	0.00000000000000	0.00000000000000	0.00000000000000	0.00000000000000	0.00000000000000	0.00000000000000	31.09676600000000	0.00000000000000	0.00000000000000	0.00000000000000	0.00000000000000	
8.08163400000000	46.96149900000000	788.14791500000001	62.99959000000000	0.34121500000000	0.00000000000000	0.12009600000000	0.00000000000000	0.00000000000000	0.00000000000000	0.00000000000000	0.00000000000000	0.00000000000000	0.00000000000000	31.10993100000000	0.00000000000000	0.00000000000000	0.00000000000000	0.00000000000000	
8.08330100000000	46.46845700000000	790.01184200000000	62.98978000000000	0.34064200000000	0.00000000000000	0.11999500000000	0.00000000000000	0.00000000000000	0.00000000000000	0.00000000000000	0.00000000000000	0.00000000000000	0.00000000000000	31.11945900000000	0.00000000000000	0.00000000000000	0.00000000000000	0.00000000000000	
8.08496800000000	45.98541800000000	791.73875399999997	62.97550600000000	0.34009000000000	0.00000000000000	0.11989500000000	0.00000000000000	0.00000000000000	0.00000000000000	0.00000000000000	0.00000000000000	0.00000000000000	0.00000000000000	31.12529500000000	0.00000000000000	0.00000000000000	0.00000000000000	0.00000000000000	
8.08663500000000	45.51229500000000	793.32849299999998	62.95671900000000	0.33955700000000	0.00000000000000	0.11979600000000	0.00000000000000	0.00000000000000	0.00000000000000	0.00000000000000	0.00000000000000	0.00000000000000	0.00000000000000	31.12737100000000	0.00000000000000	0.00000000000000	0.00000000000000	0.00000000000000	
8.08830900000000	45.04895400000000	794.78111699999999	62.93334600000000	0.33904100000000	0.00000000000000	0.11969800000000	0.00000000000000	0.00000000000000	0.00000000000000	0.00000000000000	0.00000000000000	0.00000000000000	0.00000000000000	31.12560900000000	0.00000000000000	0.00000000000000	0.00000000000000	0.00000000000000	
8.08997400000000	44.59520600000000	796.09690200000000	62.90529400000000	0.33854100000000	0.00000000000000	0.11960100000000	0.00000000000000	0.00000000000000	0.00000000000000	0.00000000000000	0.00000000000000	0.00000000000000	0.00000000000000	31.11992200000000	0.00000000000000	0.00000000000000	0.00000000000000	0.00000000000000	
8.09164000000000	44.15082400000000	797.27634699999999	62.87245000000000	0.33805400000000	0.00000000000000	0.11950500000000	0.00000000000000	0.00000000000000	0.00000000000000	0.00000000000000	0.00000000000000	0.00000000000000	0.00000000000000	31.11021800000000	0.00000000000000	0.00000000000000	0.00000000000000	0.00000000000000	
8.09330900000000	43.71553800000000	798.32017299999995	62.83468700000000	0.33758000000000	0.00000000000000	0.11941000000000	0.00000000000000	0.00000000000000	0.00000000000000	0.00000000000000	0.00000000000000	0.00000000000000	0.00000000000000	31.09639900000000	0.00000000000000	0.00000000000000	0.00000000000000	0.00000000000000	
